<svg xmlns="http://www.w3.org/2000/svg" viewBox="0 0 1800 496.2" class="block h-6 w-auto fill-current text-white"><defs></defs><g id="New_Layer" data-name="New Layer"><path d="M61.92 20.93c3.39-3.44 7.45-5.08 7.45-5.08 6.74-2.73 13.23-1.16 16.53-.31 2.67.69 16.37 4.54 22.18 16.78 3.62 7.62 2.54 15.06 1.8 19.78-5.31 33.66-10.79 55.14-10.79 55.14-10.75 42.14-16.13 63.21-16.2 68.68-.01 1.15-.02 4.23-1.78 7.44-4.78 8.68-18.93 11.9-25.77 10.19-33.05-8.28-6.36-159.5 6.59-172.61Z"></path><path d="M30.53.36C16.38 1.94 4.14 12.84.73 26.91c-1.34 5.49-.67 303.08.66 313.4 4.25 31.8 19.06 65.68 38.96 88.98 15.9 18.65 32.13 31.47 53.52 42.2 12.82 6.41 18.81 8.66 32.55 12.32 15.07 3.91 22.31 4.66 46.62 4.66s31.47-.75 46.62-4.66c29.97-7.74 54.02-21.64 76.17-43.78 17.98-17.9 29.47-35.38 38.79-58.69 4-10.07 6.49-19.56 10.41-39.79 1-5.33 1.33-45.12.42-50.11-2.5-13.73-12.9-26.55-24.81-30.8-4-1.42-6.33-1.58-13.98-1.33-8.07.25-9.74.58-14.15 2.75-6.33 3.16-13.49 10.24-16.65 16.65-2.33 4.74-2.5 5.49-2.41 14.98 0 5.49.25 13.32.5 17.48 1.33 22.39-5.66 47.2-18.73 66.43-10.49 15.4-23.47 26.8-39.29 34.38-11.32 5.41-18.65 7.57-32.05 9.16-10.57 1.25-23.14.75-32.05-1.42-5.66-1.33-20.39-6.16-20.39-6.66 0-.25 2-.17 4.41.25 10.16 1.66 16.9 1.75 21.14.33 5.08-1.66 12.65-8.32 15.15-13.15 1-2 2.41-4.66 3.16-5.99 1.25-2.33 1.25-2.66-1-6.66-7.33-13.07-7.91-14.65-7.99-20.81-.08-9.49-1.08-14.4-3.33-16.81-1.08-1.25-6.41-5.74-11.74-10.07-7.66-6.08-9.82-8.24-9.82-9.74 0-1.17 1.33-5.16 2.91-8.91 5.08-12.07 3.58-14.65-4.33-7.41-2.5 2.25-4.91 4.16-5.33 4.16s.08-2 1-4.41c2.83-6.99 4.08-11.49 4.08-14.9 0-4.16-1.33-4.08-6.49.42-2.16 1.91-8.07 6.66-12.99 10.57-4.99 3.91-12.99 10.57-17.9 14.82-4.99 4.33-11.57 9.07-15.07 10.99-3.41 1.75-7.33 4-8.74 4.99-1.33.92-2.75 1.66-3 1.66-1.58 0-2.83-13.4-2.75-29.13 0-20.39 1.08-26.64 6.99-41.62 7.08-18.06 19.15-33.88 34.55-45.37 5.49-4.08 20.39-12.07 26.22-13.98 19.23-6.41 45.78-6.41 64.93 0 11.24 3.75 31.38 16.65 42.62 27.39 2.66 2.5 6.91 5.58 9.57 6.83 4.41 2.08 5.66 2.25 15.23 2.25 10.07 0 10.65-.08 15.9-2.66 6.66-3.33 13.24-9.99 16.4-16.65 3-6.41 3.66-20.39 1.33-26.64-2.83-7.49-7.99-15.4-13.65-20.98-19.73-19.31-47.11-33.63-74.5-39.04-21.39-4.25-45.87-4.33-65.34-.17-22.81 4.83-39.96 12.15-59.1 25.31-2.08 1.42-3.91 2.58-4.16 2.58-.17 0-1.33.92-2.5 2.08-1.17 1.17-3.16 2.66-4.41 3.33-1.33.67-3.25 2.25-4.33 3.5s-2.33 2.33-2.83 2.33c-.67 0-.92-22.56-.92-75.17 0-74.67.35-83.42-5.44-90.72-1.13-1.42-2.49-2.79-4.13-4.59-2.25-2.41-5.66-5.33-7.49-6.41C51 .94 40.52-.81 30.53.36Z"></path></g><path d="m416.43 451.85-.79-257.71c-.06-20.18 16.28-36.57 36.45-36.57h3.4c20.13 0 36.45 16.32 36.45 36.45v256.31c0 20.78-17.35 37.36-38.11 36.42l-2.64-.12c-18.84-.86-33.91-15.94-34.76-34.78Zm-8.69-373.98c0-24.99 20.26-45.25 45.25-45.25h.3c24.99 0 45.25 20.26 45.25 45.25v.29c0 24.64-19.72 44.75-44.35 45.24h-.3c-25.34.51-46.15-19.89-46.15-45.24v-.29Z" id="Layer_5" data-name="Layer 5"></path><path class="cls-4" d="M880.19 63.48c.03-.42.22-2.55 0-5.39 0 0-.23-3.01-1-5.99-.9-3.5-3.22-9.3-7.79-14.78-1.49-1.78-7.4-8.51-17.78-12.39-3.6-1.34-15.81-5.73-28.97-.4-7.86 3.19-12.6 8.45-15.78 11.99-3.01 3.34-6.58 7.42-7.79 13.58-.63 3.21-.36 5.67-.2 7.39.73 7.96-.24 15.98-.2 23.97.42 76.23-.35 95.93-.4 97.69-.05 1.51-.22 3.14 0 5.79.3 3.66 1.05 5.85.4 6.19-.35.18-1.15-.14-3.2-2.6.6 2.2-14.46-12.89-17.58-14.78-23.58-14.33-46.48-18.98-60.93-20.58-10.16-1.12-34.74-2.78-63.93 6.79-9.93 3.26-34.58 12.46-58.34 34.96-27.22 25.78-37.47 54.05-41.55 65.73-1.75 5-10.2 29.93-9.59 63.93.19 10.57.78 33.26 10.39 59.53 20.65 56.5 66.36 84.16 74.12 88.7 42.96 25.15 83.85 23.66 92.7 23.17 9.58-.52 40.34-3.07 73.52-22.38 27.61-16.06 43.06-35.67 51.14-46.15 11.98-15.52 31.73-41.8 32.76-77.11.07-2.51.03-4.36 0-5.79-1.68-76.82-.69-271.92 0-281.09Zm-79.08 270.37c-.28 2.25-.67 4.46-1.2 6.64-.9 7.22-3.06 14.09-6.48 20.62-1.99 6.12-4.85 11.73-8.58 16.84-3.17 5.98-7.34 11.38-12.51 16.19-7.27 7.83-15.88 13.36-25.84 16.6a60.089 60.089 0 0 1-10.62 4.36c-7.98 3.24-16.45 4.69-25.41 4.35-21.75 0-41.06-9.09-56.76-23.51a85.309 85.309 0 0 1-5.78-6.46c-.27-.24-.54-.48-.81-.73-9.95-10.02-16.83-21.82-20.65-35.42-.96-7.11-1.91-14.23-2.87-21.34-.06-1.48-.06-2.94-.02-4.39-.39-2.93-.79-5.86-1.18-8.79-.28-7.44.68-14.54 2.86-21.3 1.04-6.38 3.09-12.49 6.15-18.32 3.24-9.95 8.77-18.56 16.6-25.84 3.07-3.3 6.38-6.2 9.93-8.68 6.39-5.8 13.69-10.04 21.9-12.71 9.57-5.03 19.88-7.33 30.93-6.91 4.86 0 9.59.46 14.19 1.32 20 1.11 37.8 9.93 52.47 23.39 9.95 10.02 16.83 21.82 20.65 35.42.03.19.05.39.08.58.63 1.77 1.2 3.58 1.72 5.42l2.87 21.34c.15 3.89-.05 7.69-.58 11.39-.09 3.39-.43 6.71-1.05 9.96Z" id="Layer_6" data-name="Layer 6"></path><path class="cls-4" d="M1260.3 419.79c-.39-25.59-.64-41.38 0-61.73 0 0 1.27-40.71 0-57.24 0-.05-.9-7.29-.9-7.29l-.3-3.7s-.52-3.41-1.23-7.53c-2.5-14.42-8.59-25.12-8.59-25.12-6.97-18.94-31.7-50.81-42.02-60.35-38.97-35.98-83.44-42.61-92-43.75-11.04-1.48-47.64-5.23-89 12.59-12.16 5.24-58.85 27.04-85.71 80.61-34.78 69.37-8.18 135.9-3.6 146.84 6.09 14.53 28.98 69.1 89.6 92.6 8.95 3.47 54.83 20.37 106.08 1.8 14.86-5.38 32.85-16.56 37.16-20.08 7.1-5.79 8.39-7.49 8.39-7.49.86-1.13 1.83-2.6 2.4-2.4.78.28.03 3.41 0 5.99-.07 5.14 2.66 9.01 5.39 12.89 2.98 4.23 13.32 16.1 29.97 17.38 0 0 24.12 1.86 41.05-24.57 3.11-4.85 3.6-9.59 3.6-9.59.2-1.97.04-3.47 0-3.9-1.2-11.93-.12-23.97-.3-35.96Zm-79.47-80.49c-.41 8.99-2.71 17.46-6.89 25.42-2.77 8.52-7.23 16.05-13.36 22.61a63.412 63.412 0 0 1-6.83 7.42c-7.27 7.83-15.88 13.36-25.84 16.6-8.36 4.39-17.28 6.7-26.77 6.94-3.69.52-7.47.72-11.35.57-21.75 0-41.06-9.09-56.76-23.51a83.519 83.519 0 0 1-7.77-9.03c-.21-.19-.42-.37-.63-.56-9.95-10.02-16.83-21.82-20.64-35.42l-2.87-21.34c-.26-6.85.53-13.42 2.37-19.7.54-3.81 1.43-7.53 2.68-11.15.76-7.82 2.97-15.24 6.66-22.26 3.24-9.95 8.77-18.56 16.6-25.84 7.27-7.83 15.88-13.36 25.84-16.6 9.57-5.03 19.88-7.33 30.93-6.91.7 0 1.4.01 2.1.03 1.88-.09 3.77-.11 5.69-.03 6.76 0 13.27.89 19.53 2.53 1.03.24 2.06.49 3.07.77 14.55 3.47 27.69 11.06 38.96 21.41 8.56 8.62 14.84 18.58 18.86 29.85 1.66 3.7 3.06 7.55 4.18 11.57.96 7.11 1.91 14.23 2.87 21.34.06 1.47.06 2.93.02 4.37 0 .55.03 1.11.02 1.66.19 1.39.37 2.77.56 4.16.2 5.2-.22 10.23-1.23 15.1Z" id="Layer_7" data-name="Layer 7"></path><path class="cls-4" d="M1285.93 455.75c-.04.43-.2 1.93 0 3.9 0 0 .49 4.74 3.6 9.59 16.94 26.43 41.05 24.57 41.05 24.57 16.65-1.28 26.98-13.15 29.97-17.38 2.73-3.87 5.46-7.74 5.39-12.89-.03-2.59-.78-5.71 0-5.99.57-.21 1.54 1.26 2.4 2.4 0 0 1.29 1.7 8.39 7.49 4.31 3.52 22.3 14.69 37.16 20.08 51.26 18.57 97.13 1.67 106.08-1.8 60.63-23.5 83.51-78.07 89.6-92.6 4.59-10.94 31.18-77.47-3.6-146.84-26.86-53.57-73.54-75.37-85.71-80.61-41.36-17.82-77.96-14.06-89-12.59-8.56 1.14-53.03 7.77-92 43.75-10.32 9.53-35.05 41.4-42.02 60.35 0 0-6.09 10.7-8.59 25.12-.71 4.12-1.23 7.53-1.23 7.53l-.3 3.7s-.9 7.24-.9 7.29c-1.27 16.53 0 57.24 0 57.24.64 20.35.39 36.14 0 61.73-.18 11.99.9 24.03-.3 35.96Zm78.55-131.55c.19-1.39.37-2.77.56-4.16 0-.55.01-1.11.02-1.66-.04-1.44-.04-2.9.02-4.37.96-7.11 1.91-14.23 2.87-21.34 1.13-4.01 2.53-7.86 4.18-11.57 4.02-11.28 10.29-21.23 18.86-29.85 11.27-10.35 24.41-17.94 38.96-21.41 1.02-.28 2.04-.53 3.07-.77a76.714 76.714 0 0 1 19.53-2.53c1.92-.07 3.82-.06 5.69.03.7-.02 1.4-.03 2.1-.03 11.05-.42 21.36 1.89 30.93 6.91 9.95 3.24 18.56 8.77 25.84 16.6 7.83 7.27 13.36 15.88 16.6 25.84 3.69 7.02 5.9 14.44 6.66 22.26a59.61 59.61 0 0 1 2.68 11.15c1.83 6.28 2.62 12.85 2.37 19.7l-2.87 21.34c-3.81 13.6-10.7 25.41-20.64 35.42-.21.19-.42.38-.63.56a82.268 82.268 0 0 1-7.77 9.03c-15.71 14.42-35.01 23.51-56.76 23.51-3.87.15-7.66-.05-11.35-.57-9.49-.24-18.42-2.55-26.77-6.94-9.95-3.24-18.56-8.77-25.84-16.6a63.342 63.342 0 0 1-6.83-7.42c-6.13-6.55-10.59-14.09-13.36-22.61-4.18-7.96-6.47-16.43-6.89-25.42-1.01-4.87-1.42-9.9-1.23-15.1Z" id="Layer_8" data-name="Layer 8"></path><path class="cls-4" d="M1658.56 58.09v337.46c0 51.33 41.61 92.93 92.93 92.93 0 0 43.72 0 48.51-32.31v-14.56c-1.5-30.22-28.77-30.82-28.77-30.82s-38.06 10.79-38.36-33.86l.6-320.94c-3.04-15.14-13.49-29.07-29.42-32.66h-13.19c-17.85 0-32.31 14.47-32.31 32.31v2.45Z" id="Layer_9" data-name="Layer 9"></path></svg>